<svg width="285" height="207" viewBox="0 0 285 207" fill="none" xmlns="http://www.w3.org/2000/svg">
<path d="M156.945 159.559L65.5498 185.653H248.34L156.945 159.559Z" fill="white" stroke="#3C4043" stroke-miterlimit="10" stroke-linecap="round" stroke-linejoin="round"/>
<path d="M156.945 128.364L65.5498 74.8359V185.654L156.945 159.56V128.364Z" fill="white" stroke="#3C4043" stroke-miterlimit="10" stroke-linecap="round" stroke-linejoin="round"/>
<path d="M156.944 159.56L248.339 185.654V74.8359L156.944 128.364V159.56Z" fill="white" stroke="#3C4043" stroke-miterlimit="10" stroke-linecap="round" stroke-linejoin="round"/>
<path d="M248.34 74.8364L156.945 21.3086L65.5498 74.8364H248.34Z" fill="white" stroke="#3C4043" stroke-miterlimit="10" stroke-linecap="round" stroke-linejoin="round"/>
<path d="M248.34 74.8359H65.5498L156.945 128.364L248.34 74.8359Z" fill="#3C4043" stroke="#3C4043" stroke-miterlimit="10" stroke-linecap="round" stroke-linejoin="round"/>
<path d="M207.052 148.263C216.96 148.263 224.992 140.232 224.992 130.327C224.992 120.421 216.96 112.391 207.052 112.391C197.144 112.391 189.111 120.421 189.111 130.327C189.111 140.232 197.144 148.263 207.052 148.263Z" fill="#D2E3FC" stroke="#D2E3FC" stroke-miterlimit="10" stroke-linecap="round" stroke-linejoin="round"/>
<path d="M200.121 122.619L205.931 120.634C210.839 118.954 216.259 119.697 220.534 122.619C224.821 125.541 230.229 126.284 235.137 124.604L240.947 122.619" stroke="#3C4043" stroke-miterlimit="10" stroke-linecap="round" stroke-linejoin="round"/>
<path d="M200.121 128.502L205.931 126.517C210.839 124.837 216.259 125.58 220.534 128.502C224.821 131.424 230.229 132.167 235.137 130.487L240.947 128.502" stroke="#3C4043" stroke-miterlimit="10" stroke-linecap="round" stroke-linejoin="round"/>
<path d="M200.121 134.381L205.931 132.396C210.839 130.716 216.259 131.459 220.534 134.381C224.821 137.303 230.229 138.046 235.137 136.366L240.947 134.381" stroke="#3C4043" stroke-miterlimit="10" stroke-linecap="round" stroke-linejoin="round"/>
<path d="M200.121 140.264L205.931 138.279C210.839 136.599 216.259 137.341 220.534 140.264C224.821 143.186 230.229 143.929 235.137 142.248L240.947 140.264" stroke="#3C4043" stroke-miterlimit="10" stroke-linecap="round" stroke-linejoin="round"/>
<path d="M49.084 83.8711L84.4045 85.8802L156.946 128.364L202.728 101.576L194.166 83.8711H49.084Z" fill="white" stroke="#3C4043" stroke-miterlimit="10" stroke-linecap="round" stroke-linejoin="round"/>
<path d="M173.704 146.069H28.6221L49.0836 83.8711H194.166L173.704 146.069Z" fill="white" stroke="#3C4043" stroke-miterlimit="10" stroke-linecap="round" stroke-linejoin="round"/>
<path d="M173.704 53.8555H28.6221V146.056H173.704V53.8555Z" fill="white" stroke="#3C4043" stroke-miterlimit="10" stroke-linecap="round" stroke-linejoin="round"/>
<path d="M123.098 82.9453H78.96" stroke="#3C4043" stroke-miterlimit="10" stroke-linecap="round" stroke-linejoin="round"/>
<path d="M135.314 91.9453H66.7314" stroke="#3C4043" stroke-miterlimit="10" stroke-linecap="round" stroke-linejoin="round"/>
<path d="M101.028 107.066V118.926" stroke="#FBBC04" stroke-miterlimit="10" stroke-linecap="round" stroke-linejoin="round"/>
<path d="M106.168 110.023L95.8887 115.953" stroke="#FBBC04" stroke-miterlimit="10" stroke-linecap="round" stroke-linejoin="round"/>
<path d="M95.8887 110.023L106.168 115.953" stroke="#FBBC04" stroke-miterlimit="10" stroke-linecap="round" stroke-linejoin="round"/>
<path d="M82.7598 107.066V118.926" stroke="#FBBC04" stroke-miterlimit="10" stroke-linecap="round" stroke-linejoin="round"/>
<path d="M87.8996 110.023L77.6201 115.953" stroke="#FBBC04" stroke-miterlimit="10" stroke-linecap="round" stroke-linejoin="round"/>
<path d="M77.6201 110.023L87.8996 115.953" stroke="#FBBC04" stroke-miterlimit="10" stroke-linecap="round" stroke-linejoin="round"/>
<path d="M64.4902 107.066V118.926" stroke="#FBBC04" stroke-miterlimit="10" stroke-linecap="round" stroke-linejoin="round"/>
<path d="M69.6301 110.023L59.3506 115.953" stroke="#FBBC04" stroke-miterlimit="10" stroke-linecap="round" stroke-linejoin="round"/>
<path d="M59.3506 110.023L69.6301 115.953" stroke="#FBBC04" stroke-miterlimit="10" stroke-linecap="round" stroke-linejoin="round"/>
<path d="M119.298 107.066V118.926" stroke="#FBBC04" stroke-miterlimit="10" stroke-linecap="round" stroke-linejoin="round"/>
<path d="M124.438 110.023L114.158 115.953" stroke="#FBBC04" stroke-miterlimit="10" stroke-linecap="round" stroke-linejoin="round"/>
<path d="M114.158 110.023L124.438 115.953" stroke="#FBBC04" stroke-miterlimit="10" stroke-linecap="round" stroke-linejoin="round"/>
<path d="M137.567 107.066V118.926" stroke="#FBBC04" stroke-miterlimit="10" stroke-linecap="round" stroke-linejoin="round"/>
<path d="M142.707 110.023L132.428 115.953" stroke="#FBBC04" stroke-miterlimit="10" stroke-linecap="round" stroke-linejoin="round"/>
<path d="M132.428 110.023L142.707 115.953" stroke="#FBBC04" stroke-miterlimit="10" stroke-linecap="round" stroke-linejoin="round"/>
</svg>
