<svg width="70" height="70" viewBox="0 0 70 70" fill="none" xmlns="http://www.w3.org/2000/svg">
<ellipse opacity="0.28" cx="35.5" cy="69" rx="18.5" ry="1" fill="#5C5F61" fill-opacity="0.5"/>
<circle cx="34.354" cy="34.354" r="29.4477" fill="white"/>
<path d="M34.8359 35.2227L44.9887 49.5135" stroke="#5C5F61" stroke-opacity="0.5" stroke-width="0.577406"/>
<path d="M55.5273 20.5469L60.1466 36.0406" stroke="#5C5F61" stroke-opacity="0.5" stroke-width="0.577406"/>
<path d="M60.0029 36.4727L55.0469 49.9455" stroke="#5C5F61" stroke-opacity="0.5" stroke-width="0.577406"/>
<path d="M45.1836 11.0195L55.2401 19.5363" stroke="#5C5F61" stroke-opacity="0.5" stroke-width="0.577406"/>
<path d="M30.6523 9.38281L44.895 10.8744" stroke="#5C5F61" stroke-opacity="0.5" stroke-width="0.577406"/>
<path d="M54.8055 50.4258L40.8516 59.3756" stroke="#5C5F61" stroke-opacity="0.5" stroke-width="0.577406"/>
<path d="M47.875 37.918L54.9482 50.1878" stroke="#5C5F61" stroke-opacity="0.5" stroke-width="0.577406"/>
<path d="M44.6523 49.5625L54.6126 50.1399" stroke="#5C5F61" stroke-opacity="0.5" stroke-width="0.577406"/>
<path d="M28.7266 50.332L29.6408 59.6186" stroke="#5C5F61" stroke-opacity="0.5" stroke-width="0.577406"/>
<path d="M40.323 59.5195H29.9297" stroke="#5C5F61" stroke-opacity="0.5" stroke-width="0.577406"/>
<path d="M29.5438 59.1855L16.6484 53.3633" stroke="#5C5F61" stroke-opacity="0.5" stroke-width="0.577406"/>
<path d="M16.2174 52.9772L9.91406 38.8789" stroke="#5C5F61" stroke-opacity="0.5" stroke-width="0.577406"/>
<path d="M10.0547 38.2031L11.1614 24.5859" stroke="#5C5F61" stroke-opacity="0.5" stroke-width="0.577406"/>
<path d="M11.2109 24.1549L17.1293 15.7344" stroke="#5C5F61" stroke-opacity="0.5" stroke-width="0.577406"/>
<path d="M16.457 53.025L28.7269 50.0898" stroke="#5C5F61" stroke-opacity="0.5" stroke-width="0.577406"/>
<path d="M17.9492 15.1569L30.171 9.38281" stroke="#5C5F61" stroke-opacity="0.5" stroke-width="0.577406"/>
<circle cx="29.6388" cy="59.4709" r="1.44351" fill="#F4B400"/>
<circle cx="54.9513" cy="50.2326" r="1.44351" fill="#0F9D58"/>
<path d="M11.6914 24.5391H22.4215L34.7876 34.9805L28.773 49.56L40.8023 59.2796" stroke="#5C5F61" stroke-opacity="0.5" stroke-width="0.577406"/>
<path d="M48.0709 38.157L44.0291 21.5085L32.6734 17.9478L30.7969 9.52734" stroke="#5C5F61" stroke-opacity="0.5" stroke-width="0.577406"/>
<circle cx="30.6037" cy="9.52555" r="1.44351" fill="#0F9D58"/>
<path d="M9.96094 38.6391L19.6806 42.2479L35.1743 35.3672L44.076 21.2688L44.7496 11.3086" stroke="#5C5F61" stroke-opacity="0.5" stroke-width="0.577406"/>
<path d="M35.1237 35.1242L32.6216 17.7539L22.0839 25.0196L19.4375 42.2455L28.676 50.1849L44.8434 49.6556L47.8266 38.0593L35.1237 35.1242Z" stroke="#5C5F61" stroke-opacity="0.5" stroke-width="0.577406"/>
<circle cx="28.5831" cy="50.0401" r="1.25105" fill="#4285F4"/>
<path d="M17.6602 15.8795L32.6246 17.9005L44.702 11.1641M60.1957 36.185L45.2794 49.1285L40.8045 59.4737" stroke="#5C5F61" stroke-opacity="0.5" stroke-width="0.577406"/>
<circle cx="40.7052" cy="59.4709" r="1.44351" fill="#0F9D58"/>
<circle cx="34.9313" cy="35.0289" r="1.87657" fill="#0F9D58"/>
<circle cx="11.068" cy="24.3492" r="1.87657" fill="#0F9D58"/>
<circle cx="44.8459" cy="10.9709" r="1.44351" fill="#4285F4"/>
<path d="M55.3352 20.3047L44.3164 21.6039L59.9064 36.1352L48.1177 37.9637" stroke="#5C5F61" stroke-opacity="0.5" stroke-width="0.577406"/>
<circle cx="55.3331" cy="19.919" r="1.25105" fill="#DB4437"/>
<circle cx="44.6539" cy="49.1773" r="1.87657" fill="#F4B400"/>
<circle cx="44.0289" cy="21.5094" r="1.87657" fill="#F4B400"/>
<circle cx="60.1466" cy="35.9904" r="1.44351" fill="#4285F4"/>
<circle cx="48.0206" cy="38.0128" r="1.25105" fill="#4285F4"/>
<circle cx="32.5255" cy="17.8029" r="1.44351" fill="#DB4437"/>
<path d="M10.1055 38.734L21.9904 25.3093L17.6599 15.4453" stroke="#5C5F61" stroke-opacity="0.5" stroke-width="0.577406"/>
<circle cx="9.91173" cy="38.7828" r="1.87657" fill="#4285F4"/>
<circle cx="22.0367" cy="24.9234" r="1.87657" fill="#4285F4"/>
<circle cx="17.5138" cy="15.4943" r="1.44351" fill="#F4B400"/>
<path d="M16.5508 53.0243L19.534 42.2461" stroke="#5C5F61" stroke-opacity="0.5" stroke-width="0.577406"/>
<circle cx="16.3615" cy="53.1232" r="1.44351" fill="#DB4437"/>
<circle cx="19.5367" cy="41.8609" r="1.87657" fill="#F4B400"/>
</svg>
