<svg width="540" height="280" viewBox="0 0 540 280" fill="none" xmlns="http://www.w3.org/2000/svg">
<path d="M113.346 24.5469H430.528V212.601H113.346V175.42V24.5469Z" fill="white" stroke="#3C4043" stroke-miterlimit="10" stroke-linecap="round" stroke-linejoin="round"/>
<path d="M113.346 50.1484H336.637" stroke="#3C4043" stroke-miterlimit="10" stroke-linecap="round" stroke-linejoin="round"/>
<path d="M113.346 174.82H430.528" stroke="#3C4043" stroke-miterlimit="10" stroke-linecap="round" stroke-linejoin="round"/>
<path d="M131.491 40.6183C133.027 40.6183 134.273 39.3729 134.273 37.8365C134.273 36.3001 133.027 35.0547 131.491 35.0547C129.954 35.0547 128.709 36.3001 128.709 37.8365C128.709 39.3729 129.954 40.6183 131.491 40.6183Z" stroke="#3C4043" stroke-miterlimit="10"/>
<path d="M145.618 40.6183C147.154 40.6183 148.4 39.3729 148.4 37.8365C148.4 36.3001 147.154 35.0547 145.618 35.0547C144.081 35.0547 142.836 36.3001 142.836 37.8365C142.836 39.3729 144.081 40.6183 145.618 40.6183Z" stroke="#3C4043" stroke-miterlimit="10"/>
<path d="M302.018 67.0547H150.945V124.146H302.018V67.0547Z" fill="#D2E3FC" stroke="#D2E3FC" stroke-miterlimit="10" stroke-linecap="round" stroke-linejoin="round"/>
<path d="M150.945 140.73H191.273" stroke="#3C4043" stroke-miterlimit="10" stroke-linecap="round" stroke-linejoin="round"/>
<path d="M150.945 157.238H175.654" stroke="#3C4043" stroke-miterlimit="10" stroke-linecap="round" stroke-linejoin="round"/>
<path d="M217.236 140.73H257.564" stroke="#3C4043" stroke-miterlimit="10" stroke-linecap="round" stroke-linejoin="round"/>
<path d="M217.236 157.238H241.945" stroke="#3C4043" stroke-miterlimit="10" stroke-linecap="round" stroke-linejoin="round"/>
<path d="M291.418 160.966C296.72 160.966 301.018 156.668 301.018 151.366C301.018 146.064 296.72 141.766 291.418 141.766C286.116 141.766 281.818 146.064 281.818 151.366C281.818 156.668 286.116 160.966 291.418 160.966Z" fill="#EA4335"/>
<path d="M230.164 256.347C230.164 256.347 249.455 242.202 250.091 212.602H295.164C295.782 242.183 315.091 256.347 315.091 256.347H230.164Z" fill="#E8EAED" stroke="#3C4043" stroke-miterlimit="10" stroke-linecap="round" stroke-linejoin="round"/>
<path d="M296.181 222.983C295.6 219.765 295.218 216.311 295.145 212.602H250.072L296.181 222.983Z" fill="#3C4043" stroke="#3C4043" stroke-miterlimit="10" stroke-linecap="round" stroke-linejoin="round"/>
<path d="M403.181 165.909C437.152 165.909 464.69 138.37 464.69 104.4C464.69 70.4292 437.152 42.8906 403.181 42.8906C369.21 42.8906 341.672 70.4292 341.672 104.4C341.672 138.37 369.21 165.909 403.181 165.909Z" fill="#EA4335" stroke="#EA4335" stroke-miterlimit="10"/>
<path d="M403.181 165.909C437.152 165.909 464.69 138.37 464.69 104.4C464.69 70.4292 437.152 42.8906 403.181 42.8906C369.21 42.8906 341.672 70.4292 341.672 104.4C341.672 138.37 369.21 165.909 403.181 165.909Z" stroke="#3C4043" stroke-miterlimit="10" stroke-linecap="round" stroke-linejoin="round"/>
<path d="M442.891 151.363L492.727 212.6" stroke="#3C4043" stroke-miterlimit="10" stroke-linecap="round" stroke-linejoin="round"/>
<path d="M385.854 124.144L420.781 88.8711" stroke="white" stroke-miterlimit="10" stroke-linecap="round" stroke-linejoin="round"/>
<path d="M420.945 123.964L385.709 89.0547" stroke="white" stroke-miterlimit="10" stroke-linecap="round" stroke-linejoin="round"/>
<path d="M84.8367 87.0209C84.0731 69.5664 94.9458 54.5664 109.182 54.5664C123.419 54.5664 134.309 69.5664 133.528 87.0391L128.509 199.948H89.8549L84.8367 87.0209Z" fill="#34A853" stroke="#34A853" stroke-miterlimit="10" stroke-linecap="round" stroke-linejoin="round"/>
<path d="M44.5817 162.02C38.6908 150.366 35.8181 132.511 46.0181 128.729C59.6181 123.693 72.709 136.329 78.2908 151.82C83.4908 166.275 94.4908 199.947 94.4908 199.947H64.9454L44.5817 162.02Z" fill="#34A853" stroke="#34A853" stroke-miterlimit="10" stroke-linecap="round" stroke-linejoin="round"/>
<path d="M114.4 199.292L122.964 79.9105C122.964 63.7832 115.073 54.5469 110.019 54.5469C105.491 54.5469 95.9277 65.456 95.9277 79.9105L98.855 199.292" stroke="#3C4043" stroke-miterlimit="10" stroke-linecap="round" stroke-linejoin="round"/>
<path d="M87.8178 199.291C87.8178 199.291 72.6905 160.218 66.8542 148.472C59.5451 133.709 49.9996 126.509 46.0178 128.727C41.2178 131.4 44.6723 142.818 50.8542 155.291C56.7087 167.091 77.036 199.291 77.036 199.291" stroke="#3C4043" stroke-miterlimit="10" stroke-linecap="round" stroke-linejoin="round"/>
<path d="M98.4182 255.6C129.164 255.6 154.073 230.673 154.073 199.945H42.7637C42.7637 230.673 67.6728 255.6 98.4182 255.6Z" fill="#E8EAED" stroke="#E8EAED" stroke-miterlimit="10" stroke-linecap="round" stroke-linejoin="round"/>
<path d="M516.181 256.344H32.7266" stroke="#3C4043" stroke-miterlimit="10" stroke-linecap="round" stroke-linejoin="round"/>
</svg>
