<svg xmlns="http://www.w3.org/2000/svg" viewBox="0 0 512 512"><path d="M137.48,159.941a41.57,41.57,0,1,1,22.575-22.677L214.4,191.605V131.2A83.2,83.2,0,0,0,131.2,48H48v83.2a83.2,83.2,0,0,0,83.2,83.2h60.739Z" fill="#aecbfa"/><path d="M169.672,365.062h0a41.633,41.633,0,1,1-22.57-22.678l44.773-44.774H131.2a83.2,83.2,0,0,0-83.2,83.2V464h83.2a83.2,83.2,0,0,0,83.2-83.195V320.336Z" fill="#669df6"/><path d="M380.8,297.609H320.238l44.748,44.746a41.674,41.674,0,1,1-22.631,22.618v0L297.6,320.223v60.582A83.2,83.2,0,0,0,380.8,464H464V380.805A83.2,83.2,0,0,0,380.8,297.609Z" fill="#669df6"/><circle cx="256" cy="256.002" r="41.6" fill="#4285f4"/><path d="M240.309,217.516l-80.364-80.36a41.449,41.449,0,0,1-22.519,22.731l80.168,80.164A41.668,41.668,0,0,1,240.309,217.516Z" fill="#669df6"/><path d="M294.434,240.145l80.117-80.106a41.512,41.512,0,0,1-22.664-22.586l-80.1,80.09A41.679,41.679,0,0,1,294.434,240.145Z" fill="#669df6"/><path d="M217.578,271.906,147.1,342.383a41.676,41.676,0,0,1,22.57,22.679l70.59-70.589A41.686,41.686,0,0,1,217.578,271.906Z" fill="#aecbfa"/><path d="M294.445,271.82a41.674,41.674,0,0,1-22.621,22.627l70.531,70.528a41.679,41.679,0,0,1,22.631-22.62Z" fill="#aecbfa"/><path d="M380.8,48a83.2,83.2,0,0,0-83.2,83.2v60.539l54.286-54.281.1-.105A41.606,41.606,0,1,1,374.6,159.985l-.054.055h0l-1.328,1.328-1.77,1.77h0L320.186,214.4H380.8A83.2,83.2,0,0,0,464,131.2V48Z" fill="#aecbfa"/></svg>