<svg xmlns="http://www.w3.org/2000/svg" height="32px" viewBox="0 0 18 18" width="32px"><path d="M15,10.42a.57.57,0,0,0-.79-.12L9,14.16v.16A.54.54,0,1,1,9,15.4v0a.53.53,0,0,0,.34-.11l5.55-4.1A.55.55,0,0,0,15,10.42Z" style="fill:#669df6"/><path d="M9,15.4a.54.54,0,0,1,0-1.08H9v-.16L3.78,10.3a.57.57,0,0,0-.79.12.55.55,0,0,0,.12.79l5.56,4.1a.51.51,0,0,0,.33.11v0Z" style="fill:#aecbfa"/><path d="M9,13.76a1.1,1.1,0,1,0,1.1,1.1A1.1,1.1,0,0,0,9,13.76ZM9,15.4a.54.54,0,1,1,.54-.54A.54.54,0,0,1,9,15.4Z" style="fill:#4285f4"/><path d="M4.48,4.58A.56.56,0,0,1,3.92,4V2.6A.56.56,0,0,1,4.48,2a.57.57,0,0,1,.57.56V4A.57.57,0,0,1,4.48,4.58Z" style="fill:#aecbfa"/><circle cx="4.48" cy="9" r=".57" style="fill:#aecbfa"/><circle cx="4.48" cy="7.34" r=".57" style="fill:#aecbfa"/><circle cx="4.48" cy="5.68" r=".57" style="fill:#aecbfa"/><path d="M13.52,6.23A.58.58,0,0,1,13,5.66V4.25a.58.58,0,0,1,.57-.57.57.57,0,0,1,.56.57V5.66A.57.57,0,0,1,13.52,6.23Z" style="fill:#4285f4"/><circle cx="13.52" cy="9.01" r=".57" style="fill:#4285f4"/><circle cx="13.52" cy="7.32" r=".57" style="fill:#4285f4"/><circle cx="13.52" cy="2.6" r=".57" style="fill:#4285f4"/><path d="M9,11.24a.57.57,0,0,1-.56-.57V9.26a.56.56,0,1,1,1.12,0v1.41A.57.57,0,0,1,9,11.24Z" style="fill:#669df6"/><circle cx="9" cy="12.34" r=".57" style="fill:#669df6"/><circle cx="9" cy="7.6" r=".57" style="fill:#669df6"/><circle cx="9" cy="5.94" r=".57" style="fill:#669df6"/><path d="M11.26,7.9a.57.57,0,0,1-.57-.56V5.93a.57.57,0,0,1,.57-.57.56.56,0,0,1,.56.57V7.34A.56.56,0,0,1,11.26,7.9Z" style="fill:#4285f4"/><circle cx="11.26" cy="4.27" r=".57" style="fill:#4285f4"/><circle cx="11.26" cy="10.64" r=".57" style="fill:#4285f4"/><circle cx="11.26" cy="8.98" r=".57" style="fill:#4285f4"/><circle cx="6.74" cy="10.64" r=".57" style="fill:#aecbfa"/><circle cx="6.74" cy="5.94" r=".57" style="fill:#aecbfa"/><circle cx="6.74" cy="4.27" r=".57" style="fill:#aecbfa"/><path d="M6.74,9.55A.56.56,0,0,1,6.18,9V7.57A.56.56,0,0,1,6.74,7a.57.57,0,0,1,.57.56V9A.57.57,0,0,1,6.74,9.55Z" style="fill:#aecbfa"/></svg>